<?xml version="1.0" standalone="no"?>
<!DOCTYPE svg PUBLIC "-//W3C//DTD SVG 20010904//EN"
 "http://www.w3.org/TR/2001/REC-SVG-20010904/DTD/svg10.dtd">
<svg version="1.0" xmlns="http://www.w3.org/2000/svg"
 width="732.000000pt" height="711.000000pt" viewBox="0 0 732.000000 711.000000"
 preserveAspectRatio="xMidYMid meet">

<g transform="translate(0.000000,711.000000) scale(0.100000,-0.100000)"
fill="#000000" stroke="none">
<path d="M3335 6615 c-5 -2 -37 -11 -70 -20 -93 -26 -115 -36 -181 -77 -34
-21 -66 -38 -73 -38 -6 0 -11 -4 -11 -9 0 -5 -24 -25 -52 -43 -91 -57 -188
-131 -229 -173 -88 -90 -259 -382 -259 -441 0 -7 -7 -17 -15 -24 -8 -7 -15
-28 -15 -46 0 -50 -33 -137 -70 -183 -53 -66 -95 -88 -180 -96 -113 -10 -188
-54 -278 -163 -36 -43 -49 -52 -76 -52 -57 0 -96 -57 -81 -117 3 -15 24 -57
46 -93 22 -37 49 -93 60 -126 11 -32 28 -75 36 -94 49 -108 75 -160 103 -203
27 -40 31 -53 25 -84 -3 -20 -12 -45 -20 -57 -7 -12 -16 -37 -20 -56 -3 -19
-10 -44 -15 -55 -9 -21 -30 -98 -60 -225 -10 -41 -25 -97 -34 -125 -9 -27 -16
-62 -16 -76 0 -38 -38 -180 -57 -213 -11 -20 -17 -63 -21 -140 -4 -96 -1 -119
17 -171 20 -53 24 -74 33 -135 3 -19 -31 -90 -43 -90 -5 0 -9 16 -9 35 0 20
-7 47 -16 60 -9 13 -13 29 -10 34 4 6 -3 27 -14 48 -11 21 -20 49 -20 63 0 14
-9 40 -20 58 -11 18 -20 48 -20 66 0 19 -5 36 -10 38 -6 2 -16 19 -23 39 -25
74 -119 148 -187 149 -16 0 -42 -16 -71 -43 l-46 -44 -7 -89 c-8 -102 -8 -99
-1 -183 3 -37 17 -87 32 -120 62 -133 93 -219 93 -253 0 -10 4 -18 8 -18 11 0
42 -72 42 -96 0 -11 9 -44 20 -73 11 -30 17 -58 13 -64 -4 -6 -1 -7 6 -3 9 6
11 -1 6 -28 -5 -24 -3 -36 4 -36 17 0 13 -55 -6 -87 -16 -28 -15 -31 4 -50 11
-11 23 -41 27 -68 9 -59 15 -75 28 -75 14 0 85 -52 97 -72 12 -19 -1 -99 -25
-155 -8 -17 -14 -38 -14 -47 0 -9 -4 -16 -10 -16 -5 0 -10 -7 -10 -15 0 -21
-86 -187 -110 -213 -11 -12 -20 -28 -20 -35 0 -8 -7 -20 -15 -27 -9 -7 -22
-27 -30 -44 -9 -17 -31 -49 -50 -71 -38 -43 -42 -61 -21 -90 12 -16 16 -17 30
-6 9 8 22 24 29 36 6 12 26 41 42 63 17 23 41 60 55 83 14 23 39 60 57 82 45
58 173 382 173 439 0 8 -29 47 -65 86 -70 78 -71 80 -79 231 -4 63 -12 107
-26 135 -21 45 -72 187 -100 281 -9 33 -29 85 -42 115 -63 139 -81 209 -80
323 1 130 17 170 71 175 27 3 40 -3 67 -29 19 -18 34 -37 34 -42 0 -5 8 -21
19 -35 18 -26 59 -137 100 -277 24 -78 41 -206 41 -301 0 -45 4 -63 15 -68 18
-6 45 19 45 42 0 10 9 25 19 34 12 10 25 42 32 78 20 103 52 134 194 188 40
15 51 24 55 48 16 76 70 114 161 114 42 0 72 -5 85 -15 10 -8 33 -15 51 -15
48 0 99 -70 108 -150 4 -32 5 -63 2 -67 -3 -5 -1 -28 4 -53 24 -113 26 -164
10 -215 -8 -27 -16 -52 -18 -54 -4 -6 -96 50 -140 86 -39 31 -43 39 -43 77 0
31 -6 48 -21 62 -18 16 -30 37 -63 114 -24 55 -55 95 -74 98 -40 6 -23 -53 52
-181 25 -42 30 -64 39 -172 15 -181 7 -192 -132 -197 -40 -1 -48 3 -79 38 -19
21 -45 56 -58 76 -49 77 -94 66 -58 -13 20 -46 114 -146 149 -159 32 -12 166
8 189 28 28 25 56 92 56 135 0 42 7 45 41 19 44 -33 134 -79 147 -75 19 7 42
-17 42 -44 0 -30 26 -81 54 -108 16 -15 33 -20 74 -18 29 0 59 7 67 13 31 26
45 4 45 -69 0 -38 -4 -72 -9 -75 -5 -4 -37 -9 -70 -12 -62 -7 -71 -5 -209 58
-38 17 -50 18 -100 7 -31 -6 -65 -15 -74 -20 -39 -21 -46 -110 -19 -269 12
-70 13 -592 2 -645 -5 -22 -12 -79 -15 -127 -4 -48 -11 -109 -16 -135 -22
-110 -49 -221 -64 -263 -9 -25 -16 -51 -16 -58 0 -8 -6 -28 -14 -45 -22 -49
-43 -121 -75 -257 -26 -109 -28 -127 -16 -139 19 -20 24 -13 40 56 22 97 72
268 86 294 7 13 23 67 35 119 12 52 31 131 43 174 11 44 21 87 21 97 0 37 68
51 107 24 17 -12 21 -22 17 -44 -4 -20 -1 -30 10 -34 9 -4 16 -12 16 -19 0 -7
21 -56 47 -108 29 -60 47 -110 48 -135 1 -35 4 -40 26 -40 21 -1 24 -5 22 -32
-2 -24 2 -33 17 -38 17 -5 20 -12 14 -40 -5 -28 0 -42 28 -82 32 -47 33 -51
32 -145 -1 -57 -9 -125 -19 -166 -21 -79 -16 -105 17 -100 33 4 58 61 58 131
0 32 5 67 10 78 12 22 45 25 57 5 11 -19 47 -36 77 -36 17 0 41 -17 77 -55 44
-47 57 -55 88 -55 59 0 81 -10 78 -34 -2 -17 7 -24 43 -36 25 -8 56 -23 70
-33 15 -10 43 -17 72 -17 27 0 57 -5 67 -12 14 -9 23 -8 42 5 33 24 53 22 39
-2 -6 -11 -6 -22 -1 -25 31 -19 238 -38 371 -33 173 5 243 26 248 71 3 25 7
27 45 25 43 -2 87 14 87 32 0 5 14 15 30 20 37 13 38 25 5 33 -15 4 -25 13
-25 25 0 17 4 17 45 8 38 -9 48 -8 62 6 13 12 14 19 5 30 -14 17 -6 27 22 27
12 0 32 9 46 20 24 18 24 19 6 33 -27 20 -12 39 20 27 14 -6 30 -8 35 -4 14 8
11 31 -6 38 -17 6 -20 32 -5 41 5 3 21 -2 35 -11 25 -16 27 -16 43 0 16 16 16
18 -2 31 -11 8 -16 21 -13 29 5 13 11 14 31 4 22 -9 28 -8 45 13 11 13 18 30
16 37 -3 7 6 17 20 22 37 14 100 89 100 119 1 20 6 26 24 26 12 0 28 7 34 15
7 8 31 28 54 44 43 29 45 40 11 64 -26 19 -22 32 11 32 16 0 31 6 34 14 4 9
14 12 26 9 15 -4 21 -1 21 10 0 9 -4 19 -10 22 -10 6 -14 45 -5 45 3 0 14 -6
25 -12 30 -19 47 3 26 33 -23 33 -20 39 19 39 29 0 39 7 70 47 20 26 34 54 31
63 -19 59 -19 58 10 62 15 2 36 15 47 29 18 25 18 28 3 51 -18 28 -11 40 34
53 42 12 51 25 44 60 -7 42 7 50 39 24 23 -17 83 -43 192 -81 17 -6 46 -23 66
-39 27 -21 39 -25 48 -16 24 24 12 56 -31 84 -24 15 -45 30 -48 33 -3 3 -14 7
-25 8 -11 2 -23 8 -26 13 -3 5 -30 18 -60 29 -30 10 -48 19 -41 20 7 0 10 5 7
10 -5 8 -11 8 -20 0 -9 -8 -15 -8 -20 0 -8 13 16 38 31 33 16 -5 26 24 28 78
2 51 25 106 56 134 17 16 20 26 14 62 -6 40 -4 45 27 74 33 31 37 40 42 106 1
18 6 35 10 39 4 4 7 20 7 34 0 15 7 33 15 40 8 7 15 27 15 44 0 18 5 37 12 44
9 9 9 18 -1 38 -10 22 -9 30 3 43 8 9 16 25 18 36 1 11 9 26 16 33 14 16 16
54 3 67 -11 12 -2 75 10 75 5 0 9 9 9 20 0 11 6 20 14 20 7 0 20 7 27 16 11
13 11 21 -3 45 -14 24 -15 31 -3 42 20 20 30 84 15 101 -9 11 -8 20 3 38 8 13
12 40 10 63 -2 22 -3 84 -3 137 1 95 -9 138 -33 138 -9 0 -13 137 -15 598 -2
530 -4 618 -23 782 -11 102 -27 205 -35 230 -9 25 -22 70 -30 100 -8 30 -19
63 -24 72 -6 10 -10 23 -10 30 0 25 -99 250 -115 262 -18 13 -46 61 -99 171
-18 39 -43 79 -55 89 -11 11 -21 25 -21 32 0 7 -6 17 -12 21 -17 10 -58 69
-58 82 0 6 -6 14 -14 18 -7 4 -19 24 -25 44 -10 32 -58 99 -169 238 -74 94
-273 238 -381 276 -23 8 -56 21 -74 29 -17 8 -43 17 -57 19 -73 16 -126 30
-135 36 -5 4 -30 13 -55 20 -25 7 -63 19 -85 27 -23 8 -59 14 -81 14 -23 0
-76 9 -119 20 -43 11 -87 20 -97 20 -10 0 -33 7 -51 16 -26 14 -70 17 -252 19
-121 1 -224 1 -230 0z m405 -55 c25 -4 99 -22 165 -39 66 -17 140 -31 165 -31
25 0 58 -7 74 -15 15 -8 33 -15 39 -15 6 0 41 -9 77 -19 36 -11 106 -32 155
-46 50 -14 108 -34 130 -43 63 -26 175 -96 233 -146 30 -25 58 -46 62 -46 9 0
104 -113 147 -174 12 -17 27 -37 33 -43 26 -31 70 -102 70 -115 0 -8 13 -27
29 -42 16 -15 37 -46 47 -69 10 -23 28 -53 40 -67 12 -14 42 -63 67 -110 24
-47 62 -113 85 -148 22 -35 46 -80 53 -100 6 -20 22 -55 35 -77 13 -22 30 -72
39 -110 9 -39 27 -101 39 -140 15 -46 26 -108 30 -179 4 -60 11 -116 16 -125
14 -28 24 -186 12 -207 -9 -17 -12 -16 -29 15 -10 18 -27 45 -38 60 -11 14
-27 39 -35 54 -7 15 -28 45 -46 65 -17 20 -41 56 -53 80 -12 24 -36 62 -54 85
-18 24 -48 71 -67 106 -19 35 -49 80 -66 100 -17 20 -41 53 -53 73 -12 21 -32
46 -44 56 -31 25 -81 91 -113 148 -42 75 -73 111 -144 165 -56 43 -70 49 -112
49 -63 0 -93 13 -115 50 -21 37 -89 70 -142 70 -20 0 -61 7 -91 16 -130 37
-393 55 -490 34 -66 -14 -171 -49 -185 -60 -6 -5 -36 -18 -68 -30 -33 -12 -71
-28 -85 -36 -15 -8 -35 -14 -46 -14 -10 0 -42 -24 -71 -54 l-52 -53 -89 0
c-101 0 -199 -13 -231 -31 -33 -18 -68 -15 -89 9 -10 12 -35 30 -54 40 -19 11
-48 29 -63 42 -27 21 -39 22 -228 26 -159 2 -202 6 -206 17 -3 8 7 34 21 59
18 30 29 66 33 110 3 36 12 70 19 76 8 6 14 17 14 25 0 19 119 250 136 265 9
7 24 29 34 48 19 37 93 117 151 163 19 14 50 39 69 55 32 27 86 62 158 103 15
9 47 29 71 44 25 16 83 41 130 57 81 27 96 28 261 28 96 0 195 -4 220 -9z
m474 -931 c34 -6 91 -17 127 -25 37 -8 86 -14 110 -14 24 -1 60 -9 79 -18 45
-22 95 -105 108 -179 9 -50 7 -65 -19 -142 -16 -47 -34 -105 -39 -127 -13 -52
-63 -117 -98 -126 -15 -4 -58 -16 -96 -27 -69 -21 -235 -37 -501 -50 -121 -6
-130 -7 -130 -26 0 -18 8 -20 94 -23 55 -2 138 4 200 14 58 10 149 21 201 25
275 22 325 49 374 205 15 49 37 114 48 145 12 34 18 74 16 100 l-3 44 42 3 41
3 104 -131 c56 -72 116 -149 131 -171 16 -21 41 -46 57 -54 16 -8 42 -34 58
-58 16 -23 40 -51 52 -62 46 -41 190 -240 190 -262 0 -7 13 -27 29 -45 35 -41
140 -198 172 -258 24 -45 24 -48 27 -410 3 -359 -11 -684 -30 -716 -13 -20
-20 -122 -9 -128 16 -10 13 -37 -6 -58 -15 -17 -15 -19 1 -37 16 -18 16 -20
-8 -44 -31 -31 -43 -74 -27 -98 16 -27 14 -46 -8 -68 -31 -31 -41 -57 -51
-124 -11 -80 -52 -216 -69 -226 -8 -5 -10 -18 -5 -34 3 -15 2 -27 -4 -27 -14
0 -22 -108 -10 -136 13 -29 4 -42 -16 -25 -8 7 -20 10 -26 6 -14 -8 -13 -48 2
-63 9 -9 8 -12 -4 -12 -26 0 -41 -71 -18 -85 16 -10 11 -25 -9 -25 -10 0 -24
-7 -31 -15 -10 -13 -9 -19 6 -37 19 -21 19 -21 0 -15 -27 10 -48 -10 -35 -34
8 -16 6 -19 -11 -19 -24 0 -36 -25 -45 -91 -5 -38 -9 -46 -23 -43 -12 3 -22
-7 -34 -36 -16 -39 -16 -41 3 -53 10 -6 19 -17 19 -24 0 -15 -16 -17 -25 -3
-21 34 -73 -46 -53 -83 13 -25 0 -40 -28 -33 -20 5 -26 1 -39 -29 -8 -20 -28
-53 -45 -73 -20 -24 -30 -48 -30 -70 0 -29 -2 -32 -19 -23 -14 8 -24 4 -46
-19 -16 -16 -29 -40 -31 -52 -1 -13 -3 -26 -3 -30 -1 -5 -7 -8 -15 -8 -17 0
-81 -75 -90 -108 -4 -12 -16 -27 -27 -32 -10 -6 -19 -21 -19 -33 0 -40 -12
-67 -30 -67 -9 0 -47 -31 -84 -70 -37 -38 -73 -70 -79 -70 -15 0 -67 -51 -67
-66 0 -7 -12 -19 -27 -26 -15 -7 -34 -27 -42 -43 -17 -36 -56 -68 -90 -75 -18
-4 -27 -13 -29 -30 -5 -36 -20 -50 -54 -50 -16 0 -31 -6 -34 -15 -4 -8 -17
-15 -29 -15 -17 0 -25 -7 -27 -22 -2 -15 -10 -24 -23 -24 -11 -1 -26 -2 -32
-3 -8 -1 -13 -15 -13 -36 0 -41 -10 -43 -52 -14 -27 20 -33 21 -71 9 -23 -8
-47 -18 -54 -23 -7 -5 -21 -6 -33 -2 -12 4 -28 1 -36 -6 -12 -9 -26 -9 -69 1
-30 7 -71 10 -95 6 -33 -5 -47 -2 -70 14 -20 14 -37 19 -55 14 -19 -5 -29 -1
-43 16 -13 17 -30 22 -77 24 -33 2 -67 6 -76 10 -10 4 -23 6 -30 5 -24 -5 -59
11 -69 32 -7 13 -21 19 -44 19 -29 0 -33 3 -29 19 4 16 -2 21 -31 27 -44 8
-96 65 -96 106 0 21 -5 28 -19 28 -37 0 -90 30 -122 71 -31 40 -33 45 -31 118
3 100 12 175 23 192 8 11 13 9 30 -13 16 -21 26 -27 44 -22 18 4 24 1 29 -20
4 -17 13 -26 26 -26 11 0 20 5 20 11 0 5 4 8 9 5 4 -3 6 -16 4 -30 -6 -30 22
-47 69 -44 28 3 34 -1 36 -20 3 -20 7 -21 41 -16 33 5 38 3 49 -21 11 -23 17
-26 42 -22 20 5 38 -1 65 -18 46 -32 72 -32 87 0 14 31 22 31 36 0 13 -28 23
-31 52 -13 16 10 23 8 44 -15 25 -27 60 -35 71 -17 4 6 15 8 26 5 13 -4 27 2
44 21 27 30 20 31 112 -13 28 -14 34 -14 54 1 27 19 62 21 91 5 17 -9 24 -8
37 8 20 24 64 43 101 43 22 0 29 5 32 22 2 17 14 25 43 34 36 10 40 14 43 47
3 40 43 77 82 77 17 0 21 5 20 28 -4 48 -1 52 34 52 44 0 57 27 24 52 l-23 18
22 0 c16 0 23 8 28 31 4 17 13 33 20 35 7 3 20 23 30 44 9 21 26 40 36 43 11
3 19 13 19 22 0 9 11 26 25 37 14 11 25 28 25 38 0 9 10 24 23 33 18 12 20 18
10 28 -16 16 -17 49 -2 49 7 0 17 -7 24 -17 16 -22 35 -8 35 27 0 16 5 32 10
35 6 3 10 19 10 36 0 19 5 29 15 29 9 0 19 8 22 18 4 9 17 32 30 51 29 43 31
110 4 135 -26 24 -65 17 -69 -11 -2 -14 -10 -23 -20 -23 -10 0 -28 -7 -41 -16
-18 -13 -22 -23 -17 -44 4 -22 1 -29 -16 -33 -18 -5 -20 -11 -14 -41 6 -29 4
-36 -9 -36 -8 0 -15 -9 -15 -20 0 -11 -4 -20 -9 -20 -14 0 -71 -88 -71 -109 0
-10 -9 -21 -20 -24 -11 -3 -20 -14 -20 -25 0 -11 -7 -25 -15 -32 -8 -7 -15
-25 -15 -41 0 -19 -6 -30 -20 -34 -11 -3 -20 -13 -20 -22 0 -8 -14 -29 -31
-46 -142 -148 -159 -169 -153 -192 5 -19 2 -24 -13 -24 -10 -1 -25 -1 -33 -1
-8 -1 -24 0 -35 2 -14 2 -21 -3 -23 -20 -3 -16 -8 -22 -19 -18 -19 8 -48 -8
-96 -51 -21 -18 -42 -31 -47 -28 -5 3 -31 7 -57 10 -26 2 -57 5 -68 7 -14 2
-21 -3 -23 -19 -2 -12 -10 -27 -19 -34 -13 -11 -17 -10 -28 4 -9 13 -20 16
-39 11 -19 -4 -28 -2 -32 10 -10 25 -33 19 -40 -10 l-7 -26 -13 30 c-10 25
-18 31 -46 31 -53 0 -112 12 -129 27 -19 17 -39 1 -39 -32 0 -13 -5 -26 -10
-29 -6 -4 -10 6 -10 23 0 27 -4 30 -40 36 -30 5 -44 13 -52 31 -6 14 -15 25
-19 25 -5 0 -25 16 -44 36 -28 28 -41 34 -58 29 -12 -4 -35 -9 -50 -12 -26 -5
-28 -3 -25 23 2 22 -2 29 -20 33 -13 3 -23 10 -22 15 3 14 -23 26 -42 20 -14
-4 -18 0 -18 19 0 14 -14 36 -35 56 l-35 31 0 545 0 545 42 46 c46 50 54 51
138 18 90 -35 546 -17 661 27 30 12 79 29 109 39 125 43 162 58 183 77 12 12
54 37 92 58 39 20 75 40 80 44 6 4 30 15 55 24 25 10 56 26 70 36 20 16 22 22
12 34 -11 13 -26 8 -115 -35 -56 -28 -133 -68 -171 -91 -60 -34 -77 -40 -122
-38 -29 1 -72 -3 -96 -9 -60 -15 -224 -31 -343 -35 -274 -7 -340 -7 -340 1 0
5 6 33 13 62 19 85 2 126 -70 163 -61 31 -117 23 -162 -24 -17 -17 -20 -17
-28 -4 -4 9 -7 116 -6 239 l3 223 53 6 c83 11 110 26 118 65 15 79 -29 193
-92 243 -28 22 -30 39 -9 67 8 10 14 28 15 39 0 19 21 89 60 200 20 57 14 55
143 36 61 -10 82 -10 93 0 25 20 15 46 -31 87 -50 44 -55 63 -22 85 12 8 37
29 55 47 26 27 32 40 32 76 0 41 -2 44 -26 44 -15 0 -43 -14 -64 -32 -22 -18
-56 -43 -77 -55 -46 -25 -60 -18 -95 48 -18 34 -29 44 -48 44 -21 0 -26 -5
-28 -33 -2 -18 1 -39 6 -45 5 -7 12 -24 15 -38 5 -21 -2 -34 -41 -75 -58 -61
-107 -154 -97 -185 6 -18 12 -21 46 -16 21 3 41 2 44 -2 2 -4 -3 -32 -12 -62
-9 -30 -17 -73 -18 -96 -2 -23 -6 -46 -9 -51 -3 -5 -36 -7 -73 -5 -64 4 -72 2
-147 -37 -44 -22 -88 -48 -100 -56 -11 -7 -33 -14 -49 -14 -19 0 -42 -14 -75
-44 l-47 -44 -67 5 c-36 3 -81 3 -100 -1 -36 -6 -122 -80 -152 -129 -10 -17
-41 -38 -83 -57 -70 -32 -83 -30 -83 16 0 12 -9 50 -20 84 -11 35 -20 89 -20
124 0 60 4 81 34 181 28 96 44 160 50 210 9 69 44 210 62 243 7 15 14 39 14
53 0 14 3 29 7 33 8 7 25 68 44 151 11 47 66 155 80 155 3 0 19 20 35 45 15
25 31 45 35 45 3 0 18 18 33 39 l27 39 94 4 c75 2 97 7 114 22 30 27 13 39
-40 27 -24 -6 -81 -11 -125 -11 -95 0 -114 11 -95 57 6 16 19 64 30 108 10 44
24 93 31 110 6 16 20 67 31 112 21 94 72 202 118 251 l30 32 143 0 c170 0 253
-12 283 -40 12 -11 27 -20 34 -20 6 0 23 -11 36 -25 21 -20 25 -34 25 -82 0
-40 -6 -68 -20 -90 l-19 -32 -45 13 c-25 8 -100 20 -166 27 -97 10 -135 10
-195 0 -109 -18 -195 -71 -155 -96 6 -4 30 5 53 18 72 42 170 51 330 31 133
-17 151 -25 113 -49 -46 -31 -76 -94 -76 -162 0 -47 -4 -64 -20 -78 -27 -25
-25 -45 4 -45 39 0 56 35 56 112 0 61 3 71 30 102 17 19 58 47 90 62 33 15 60
31 60 35 0 4 10 11 23 15 12 4 42 21 67 38 25 17 54 36 65 41 23 12 32 42 17
57 -7 7 -23 1 -49 -20 -22 -17 -51 -36 -66 -43 -15 -7 -27 -16 -27 -21 0 -4
-7 -8 -15 -8 -12 0 -15 14 -15 65 0 62 1 65 28 71 15 3 43 12 62 20 42 18 263
25 279 9 6 -6 13 -48 17 -95 7 -90 33 -160 59 -160 18 0 19 14 1 65 -21 61
-30 196 -15 228 15 32 95 97 121 97 10 0 26 4 36 10 16 8 57 26 197 82 28 11
68 23 90 28 60 12 271 11 339 -1z m-1899 -231 c-9 -18 -20 -41 -25 -50 -13
-23 -46 -125 -55 -168 -4 -19 -26 -89 -48 -155 -22 -66 -43 -140 -46 -165 l-6
-45 -45 -3 c-64 -4 -106 24 -113 75 -2 21 -14 72 -25 113 -14 50 -22 104 -22
163 l0 87 57 56 c71 69 120 94 202 101 35 3 75 9 90 13 49 15 53 13 36 -22z
m-147 -654 c2 -1 -6 -12 -17 -23 -11 -11 -32 -38 -46 -61 -14 -22 -30 -40 -35
-40 -6 0 -20 21 -31 48 -11 26 -30 57 -41 69 l-20 22 93 -6 c52 -3 96 -7 97
-9z m687 -1132 c58 -44 105 -133 105 -200 0 -20 -5 -22 -48 -22 -27 0 -71 7
-98 15 -93 28 -177 17 -234 -32 -23 -20 -42 -34 -44 -32 -2 2 -20 29 -40 59
-20 30 -43 65 -52 77 -22 30 -12 52 19 46 17 -3 34 4 58 25 19 16 63 46 99 66
54 30 75 36 125 36 54 0 65 -4 110 -38z m-92 -266 c3 -8 6 -136 6 -286 l1
-271 -25 -25 c-27 -27 -47 -30 -64 -11 -6 8 -29 20 -51 27 -31 10 -40 18 -40
35 0 13 -7 29 -16 36 -13 11 -15 24 -9 69 9 77 9 92 0 205 -7 97 -6 102 20
147 38 67 68 88 125 88 32 0 50 -5 53 -14z m268 -519 c22 -13 26 -71 8 -109
-10 -21 -86 -78 -104 -78 -4 0 -26 -16 -48 -36 -35 -32 -41 -35 -49 -19 -6 9
-8 55 -6 101 3 92 4 93 83 145 32 21 79 19 116 -4z m2469 -178 c0 -24 -23 -21
-28 4 -2 10 3 17 12 17 10 0 16 -9 16 -21z m-2125 -42 c28 -40 20 -48 -47 -45
-53 3 -63 6 -66 22 -9 43 86 62 113 23z m163 2 c30 -11 28 -29 -3 -30 -78 -5
-88 -3 -99 14 -22 35 29 43 102 16z m140 9 c-7 -19 -45 -21 -51 -4 -5 12 1 16
24 16 20 0 29 -4 27 -12z m-470 -7 c8 -5 12 -17 10 -27 -3 -16 -14 -20 -61
-22 -52 -3 -57 -1 -57 18 0 32 74 53 108 31z m-160 -18 c2 -8 -5 -13 -17 -13
-21 0 -35 13 -24 24 10 10 36 3 41 -11z m-647 -85 c1 -7 3 -46 5 -87 2 -41 8
-79 13 -84 20 -20 29 7 30 90 0 47 2 88 5 90 2 2 32 -11 67 -29 53 -28 76 -34
153 -38 l91 -5 2 -463 c1 -400 0 -464 -13 -469 -20 -8 -52 23 -72 71 l-18 40
-32 -30 c-29 -26 -31 -33 -26 -68 5 -26 13 -40 26 -44 12 -3 18 -14 18 -36 0
-17 9 -51 20 -75 16 -35 24 -42 41 -38 17 5 20 2 16 -14 -3 -12 2 -28 13 -39
17 -17 19 -28 20 -85 0 -45 -24 -195 -32 -195 -4 0 -8 7 -8 15 0 8 -9 24 -20
35 -24 24 -24 28 -4 51 20 23 9 42 -22 36 -20 -4 -22 -1 -17 24 8 40 -15 99
-42 109 -18 7 -24 19 -29 60 -6 42 -11 52 -32 60 -14 6 -22 14 -19 20 5 9 -1
35 -23 100 -3 8 -4 20 -3 26 1 11 -16 30 -34 36 -5 1 -8 7 -6 13 15 37 12 63
-10 78 -35 25 -50 80 -38 145 6 29 9 55 7 56 -2 1 -16 6 -33 12 -36 11 -43 38
-19 65 18 20 14 30 -20 42 -5 2 -11 55 -13 117 -2 63 -8 170 -13 238 -9 130
-4 167 27 175 33 8 43 7 44 -5z m-41 -1035 c0 -16 -6 -23 -19 -23 -29 0 -34
16 -20 57 l12 36 13 -24 c7 -13 13 -34 14 -46z m2450 -257 c0 -7 -7 -19 -15
-26 -13 -11 -15 -8 -15 14 0 16 5 26 15 26 8 0 15 -6 15 -14z"/>
<path d="M3353 6499 c-6 -6 -53 -14 -104 -17 -74 -6 -94 -10 -94 -22 0 -19
125 -26 195 -11 38 8 63 6 131 -10 103 -25 233 -20 227 9 -3 14 -17 17 -88 18
-62 0 -101 6 -144 22 -65 24 -106 28 -123 11z"/>
<path d="M3100 6323 c-14 -2 -39 -11 -57 -19 -18 -8 -62 -14 -106 -14 -79 0
-98 -10 -76 -37 11 -13 28 -15 99 -10 47 3 105 13 130 23 38 14 80 17 260 16
118 -1 269 -5 335 -9 66 -4 134 -7 152 -5 41 4 51 29 17 42 -25 10 -705 21
-754 13z"/>
<path d="M2844 6120 c-22 -16 -62 -40 -87 -53 -58 -31 -193 -164 -201 -197 -4
-14 -2 -31 3 -39 12 -19 35 -2 58 43 22 42 80 97 150 141 125 79 153 100 150
115 -4 24 -30 21 -73 -10z"/>
<path d="M3441 6116 c-17 -20 -17 -20 127 -39 83 -12 125 -23 159 -42 26 -14
87 -35 137 -46 72 -16 98 -27 135 -57 25 -21 66 -51 91 -67 25 -17 65 -52 90
-79 35 -37 51 -47 70 -44 24 3 22 7 -40 72 -36 37 -89 85 -118 105 -28 20 -72
50 -96 67 -28 18 -74 37 -123 48 -43 10 -109 33 -148 52 -61 30 -84 35 -170
40 -85 6 -102 4 -114 -10z"/>
<path d="M3915 5355 c-160 -30 -330 -90 -342 -122 -12 -32 15 -36 68 -9 29 14
59 26 66 26 7 0 54 13 105 29 158 49 211 56 301 37 43 -9 96 -28 117 -41 43
-27 56 -30 64 -16 20 32 -45 73 -154 96 -84 18 -130 18 -225 0z"/>
<path d="M3320 5179 c0 -41 16 -69 40 -69 23 0 24 10 9 63 -7 26 -15 37 -29
37 -16 0 -20 -7 -20 -31z"/>
<path d="M4416 3212 c-4 -11 -2 -31 4 -46 5 -15 10 -49 10 -76 0 -27 5 -61 11
-77 6 -15 17 -52 25 -81 13 -50 13 -57 -5 -98 -11 -24 -23 -72 -27 -107 -4
-34 -13 -74 -20 -89 -8 -15 -14 -37 -14 -48 0 -12 -7 -34 -14 -48 -33 -60 -86
-180 -86 -194 0 -15 -23 -69 -41 -98 -5 -8 -14 -26 -21 -40 -7 -14 -18 -33
-26 -42 -8 -10 -12 -24 -9 -32 5 -12 12 -13 37 -5 16 6 30 16 30 23 0 7 15 43
34 82 18 38 37 85 40 104 4 19 16 51 26 70 10 19 24 46 30 60 7 14 18 38 26
53 8 16 14 37 14 48 0 10 9 36 20 56 12 24 20 57 20 88 0 31 8 66 20 90 25 50
25 111 0 177 -11 29 -20 76 -20 103 0 96 -46 186 -64 127z"/>
<path d="M3167 2254 c-31 -31 22 -54 123 -54 87 0 130 12 130 35 0 12 -17 15
-102 15 -57 0 -112 3 -123 6 -11 3 -24 2 -28 -2z"/>
<path d="M5368 1763 c7 -3 16 -2 19 1 4 3 -2 6 -13 5 -11 0 -14 -3 -6 -6z"/>
</g>
</svg>
